<svg xmlns="http://www.w3.org/2000/svg" viewBox="0 0 55 55"><path d="M1 1h7v7h-7zM10 1h2v2h1v1h1v-1h2v1h-1v1h-1v1h-1v1h-1v-3h-2v-1h-1v-1h1zM17 1h3v1h-2v1h2v2h1v2h-1v-1h-1v-1h-3v-1h1v-1h-1v-1h1zM22 1h1v4h-2v-1h1zM24 1h1v1h-1zM28 1h6v1h-2v1h-1v-1h-3zM36 1h3v1h-1v3h-2v-1h1v-1h-1v1h-3v1h-1v-2h3v-1h1zM41 1h1v3h-1zM43 1h1v1h1v2h-1v-1h-1zM47 1h7v7h-7zM2 2v5h5v-5zM13 2h1v1h-1zM20 2h1v1h-1zM27 2h1v1h-1zM39 2h1v1h-1zM48 2v5h5v-5zM3 3h3v3h-3zM24 3h1v2h1v-2h1v2h2v-1h-1v-1h2v2h2v1h-2v3h3v1h1v1h-3v-1h-1v1h-1v-1h-2v3h1v1h-2v1h-1v-1h-1v-1h1v-1h-1v-1h2v-1h-2v-1h1v-3h-2v-1h1zM49 3h3v3h-3zM9 4h1v1h-1zM40 4h1v2h2v-1h-1v-1h2v4h-1v-1h-1v1h1v2h1v1h-4v-3h1v-1h-1v1h-1v-2h1zM45 4h1v1h-1zM15 5h1v1h-1zM34 5h1v1h-1zM9 6h1v2h-1zM16 6h1v1h-1zM18 6h1v1h-1zM22 6h1v1h-1zM26 6v3h3v-3zM35 6h1v2h1v-1h1v1h1v3h1v3h-1v-1h-1v1h-1v1h1v-1h1v2h-1v1h1v2h-1v-1h-2v-1h1v-1h-1v-2h-2v-1h-1v1h-1v1h1v1h-1v1h-2v-2h-1v1h-1v-2h1v-1h-1v-2h1v1h1v-1h1v2h-1v1h1v-1h1v-1h2v-1h1v2h1v-1h2v-1h-2v-1h-2v-2h1zM11 7h1v4h1v1h-2v1h-1v1h-1v-1h-1v-1h-2v3h-2v2h-1v1h-1v-1h-1v-2h1v-1h3v-1h-1v-1h1v-1h-1v1h-1v1h-1v1h-1v-5h5v2h3v-1h-2v-1h3v2h1zM13 7h1v1h-1zM15 7h1v1h-1zM17 7h1v2h-1zM19 7h1v1h-1zM21 7h1v1h-1zM23 7h1v1h-1zM27 7h1v1h-1zM31 7h1v1h-1zM33 7h1v1h-1zM45 7h1v1h-1zM14 8h1v1h-1zM20 8h1v1h-1zM44 8h1v1h-1zM13 9h1v1h-1zM18 9h1v1h-1zM22 9h1v1h-1zM41 9v1h1v-1zM45 9h2v2h1v2h-2v-3h-1zM48 9h1v1h-1zM50 9h1v1h-1zM52 9h1v1h-1zM2 10v1h1v-1zM14 10h1v1h1v1h-1v1h-2v-1h1zM16 10h1v1h-1zM19 10h3v3h-1v2h1v1h-1v2h-1v1h-2v1h2v2h1v1h-2v-1h-1v-1h-1v-1h-2v-1h2v-1h2v-1h-1v-1h1v-1h1v-1h-4v-2h1v1h1v-2h1v2h1v-1h1v-1h-2zM49 10h1v1h-1zM51 10h1v1h-1zM53 10h1v1h-1zM50 11h1v1h-1zM52 11h1v4h-1v1h-1v-2h-2v1h-1v-2h1v-1h1v1h2zM23 12h1v1h-1zM7 13h1v1h-1zM11 13h2v2h-1v1h-1zM42 13h3v3h1v1h1v-1h-1v-1h2v1h1v1h-1v1h-1v1h-1v-1h-2v-1h-1v1h1v1h-2v-2h-3v-1h2v-1h-1v-1h2zM14 14h2v1h2v1h-2v1h1v1h-4v-1h-1v-1h2v1h1v-1h-1zM22 14h1v1h-1zM6 15h3v1h-2v1h5v1h-2v2h4v1h-3v1h1v1h-2v-2h-1v1h-2v-1h1v-1h-1v1h-2v-1h1v-1h3v-1h-3zM23 15h1v1h3v1h-1v1h-3v-1h-1v-1h1zM34 15h1v1h1v1h-3v-1h1zM43 15v1h1v-1zM49 15h1v1h-1zM53 16h1v1h-1zM28 17h2v1h2v-1h1v3h2v-1h1v2h-1v2h-1v1h1v1h-3v-1h1v-1h-2v-2h1v1h2v-1h-2v-1h-1v-1h-4v-1h1zM49 17h1v1h-1zM51 17h2v1h-2zM1 18h1v1h-1zM4 18h2v1h-2zM22 18h1v1h1v1h-2zM34 18h1v1h-1zM40 18h1v1h-1zM50 18h1v1h-1zM53 18h1v1h-1zM2 19h2v1h-2zM20 19h1v1h-1zM25 19h2v2h-1v-1h-1zM47 19h3v1h-1v1h1v1h3v1h-1v1h-3v-2h-1v-1h-1zM51 19h1v1h-1zM24 20h1v1h-1zM28 20h1v1h-1zM39 20h2v1h-2zM42 20h2v1h-1v1h2v1h-1v1h1v1h1v-1h-1v-1h3v1h-1v1h1v-1h1v1h1v2h1v2h-1v1h1v-1h1v3h-2v1h-1v-1h-1v-1h1v-1h-2v2h1v1h1v1h-2v-1h-1v-1h-1v-1h1v-1h-1v-3h-3v-2h-2v1h-1v-2h1v-1h1v1h2v-1h-2v-1h1zM50 20h1v1h-1zM52 20h1v1h-1zM2 21h1v1h-1zM14 21h1v1h-1zM29 21h1v2h-1zM36 21h2v1h1v1h-2v-1h-1zM3 22h4v1h-1v1h-1v1h4v-1h2v1h-1v3h1v-1h1v-1h-1v-1h2v-1h2v1h-1v1h-1v2h2v2h-1v-1h-1v1h-1v-1h-2v1h2v2h-1v2h-2v-2h1v-1h-1v1h-3v-1h2v-1h-3v-3h-3v-1h-1v-1h2v1h1v-3h-1zM15 22h1v1h-1zM22 22h3v1h-2v1h-1zM26 22h2v1h-1v2h1v-2h1v1h1v1h2v2h-2v3h1v-2h1v1h1v2h-1v1h-2v-1h-1v1h-1v1h-1v-2h-2v-2h-3v1h-1v-1h-1v-1h1v-1h-2v-1h3v2h1v-1h1v1h1v-3h-1v-1h1v-1h1zM1 23h2v1h-2zM7 23h1v1h-1zM12 23h1v1h-1zM17 23h2v1h-2zM30 23h1v1h-1zM35 23h2v1h-2zM16 24h1v1h-1zM20 24h1v1h-1zM37 24h1v2h1v1h-3v-2h1zM52 24h2v3h-1v-1h-1v1h-1v-2h1zM18 25h1v1h-1zM22 25h1v1h-1zM6 26v3h3v-3zM14 26h1v1h-1zM16 26h1v1h-1zM26 26v3h3v-3zM33 26h1v1h-1zM40 26h1v2h-1v1h1v1h-2v1h3v1h1v1h-2v-1h-1v1h-1v-1h-2v-1h-1v-2h1v-1h1v1h1v-2h1zM46 26v3h3v-3zM1 27h1v2h1v1h-2zM7 27h1v1h-1zM15 27h1v1h-1zM27 27h1v1h-1zM34 27h1v1h-1zM47 27h1v1h-1zM16 28h1v1h-1zM41 28h2v1h-2zM52 28h1v1h-1zM17 29h3v1h-3zM34 29h1v1h-1zM3 30h1v4h2v1h-2v2h1v1h-2v-1h-1v-1h1v-1h-2v-2h1v1h1v-1h-1v-1h1zM13 30h1v1h-1zM16 30h1v1h-1zM20 30h1v2h-1v1h1v1h-1v1h-2v2h-1v-1h-3v-1h3v-1h2v-1h-1v-1h1v-1h1zM22 30h1v1h-1zM42 30h2v2h-1v-1h-1zM14 31h2v1h1v2h-3v1h-1v-1h-1v-2h1v1h2v-1h-1zM23 31h1v3h-1v-1h-2v-1h2zM34 31h2v2h2v1h-1v2h1v1h1v2h-1v-1h-2v-1h-1v-1h-2v2h-1v1h-1v-1h-2v-1h2v-1h1v-1h1v-1h1v1h2v-1h-2v-1h1v-1h-1zM32 32h1v2h-1zM44 32h1v1h-1zM52 32h1v2h-1v2h-1v-2h-1v-1h2zM6 33h2v1h-2zM25 33h2v1h-2zM30 33h1v1h1v1h-1v1h-1zM45 33h1v1h-1zM22 34h1v1h1v1h1v-1h2v1h-1v2h-1v-1h-3zM24 34h1v1h-1zM27 34h2v2h-1v-1h-1zM38 34h1v1h-1zM41 34h3v1h-2v1h-1zM46 34h1v1h-1zM49 34h1v1h-1zM53 34h1v1h-1zM7 35h2v1h1v1h-2v-1h-1zM11 35h2v1h1v1h1v1h-1v2h-1v-1h-1v1h-1v-1h-1v-1h1zM20 35h1v1h-1zM39 35h1v1h-1zM44 35h2v1h-1v1h-1v1h1v1h-1v3h1v1h-2v1h2v1h-1v2h-1v-1h-1v-2h-1v-1h1v-2h-1v2h-1v-1h-1v-1h1v-1h2v-2h1v-1h-1v-1h2zM5 36h2v1h-2zM19 36h1v1h2v1h-1v2h-1v-1h-1v1h-1v-3h1zM40 36h1v1h-1zM46 36h3v2h-1v1h-1v1h-1v-2h1v-1h-1zM50 36h1v2h-1zM52 36h1v1h1v2h-1v-1h-1zM1 37h1v1h-1zM7 37h1v1h-1zM45 37h1v1h-1zM2 38h1v1h-1zM5 38h2v1h-1v1h1v1h-1v1h-1v1h1v-1h1v1h1v-1h1v1h1v1h-6v-3h1v-1h-2v-1h2zM8 38h1v1h-1zM22 38h2v1h-1v1h-1zM26 38h3v1h-1v1h1v1h-2v3h1v1h2v-3h1v-2h1v1h1v2h-1v1h-1v1h2v1h-1v1h1v-1h1v2h-4v2h1v-1h2v1h1v1h-2v1h-2v-1h-2v-1h-1v1h-1v-1h-1v-1h-1v1h-1v-1h-1v-1h1v-1h-1v-1h2v2h1v-2h-1v-1h1v-2h1v-2h-2v-1h3v-1h-1zM33 38h1v1h1v1h1v1h-3v-1h-1v-1h1zM40 38h1v1h-1zM49 38h1v1h-1zM7 39h1v1h-1zM9 39h1v1h1v1h-1v1h-1v-1h-1v-1h1zM16 39h1v1h1v1h-2zM29 39h1v1h-1zM36 39h2v3h1v1h-3v-2h1v-1h-1zM39 39h1v1h-1zM50 39h1v1h-1zM1 40h1v2h-1zM12 40h1v1h-1zM14 40h1v1h-1zM21 40h1v1h-1zM45 40h1v1h1v-1h2v1h-1v1h-1v1h-1v-1h-1zM52 40h2v3h-2v-1h-1v3h1v1h1v1h-2v-1h-1v1h1v1h-1v1h3v2h-2v-1h-3v1h-1v2h-1v-3h-2v-1h1v-1h-1v-1h1v-2h1v-1h2v1h2v-1h-2v-2h2v-1h2zM7 41h1v1h-1zM11 41h1v1h-1zM18 41h1v1h-1zM22 41h1v1h-1zM2 42h1v2h1v1h-2v-1h-1v-1h1zM10 42h1v1h-1zM12 42h1v1h1v-1h1v1h1v1h-2v1h1v1h1v1h2v1h-1v2h-1v-1h-1v3h-2v2h-1v-2h-2v1h1v1h-2v-5h1v-1h-1v-3h1v-1h1v3h1v1h-1v1h1v2h2v-3h1v-1h-1v-1h-1v-1h-1zM16 42h1v1h-1zM19 42h3v2h1v1h-1v1h-3v-1h-1v-1h3v-1h-2zM23 43h1v1h-1zM28 43h1v1h-1zM33 43h2v1h-2zM45 43h1v1h-1zM16 44h1v1h1v1h-2zM35 44h1v1h-1zM37 44h2v1h-1v1h1v1h-1v1h-2v1h-2v-1h1v-1h1v-2h1zM40 44h1v1h-1zM52 44h1v1h-1zM4 45h1v1h-1zM7 45h1v1h-1zM39 45h1v1h-1zM18 46h1v1h-1zM26 46v3h3v-3zM41 46h1v1h1v1h-1v1h-2v-1h1zM46 46v3h3v-3zM1 47h7v7h-7zM19 47h3v1h-1v2h-1v1h1v1h-2v-1h-1v1h1v1h1v1h-2v-1h-1v-1h-1v-1h1v-1h2v-1h-1v-1h1zM27 47h1v1h-1zM47 47h1v1h-1zM2 48v5h5v-5zM12 48h1v1h-1zM38 48h1v1h1v1h-1v1h-1v-1h-1v1h-1v-2h2zM43 48h1v1h-1zM53 48h1v1h-1zM3 49h3v3h-3zM22 50h1v2h-1zM42 50h2v1h-2zM25 51h1v2h1v1h-3v-1h-1v-1h2zM27 51h1v1h1v1h-2zM35 51h1v1h-1zM37 51h1v1h-1zM39 51h2v2h-1v-1h-1zM44 51h1v1h-1zM49 51h2v2h-1v-1h-1zM53 51h1v1h-1zM15 52h1v2h-1zM33 52h1v1h-1zM36 52h1v1h-1zM38 52h1v1h-1zM43 52h1v1h1v1h-2zM52 52h1v1h-1zM30 53h3v1h-3zM34 53h2v1h-2zM37 53h1v1h-1zM39 53h1v1h-1zM47 53h1v1h-1zM49 53h1v1h-1z"/></svg>